<!--?xml version="1.0" encoding="UTF-8" standalone="no"?--><!-- Generator: Gravit.io --><?xml-stylesheet type="text/css" href="/styles/anim.css" ?><svg xmlns="http://www.w3.org/2000/svg" xmlns:xlink="http://www.w3.org/1999/xlink" style="isolation:isolate" viewBox="0 0 360 640" width="100%" height="100%"><defs><clipPath id="_clipPath_0ablVw9Kq3Of7IUukNg3vKci0OQvynjg"><rect width="360" height="640" class="svg-elem-1"></rect></clipPath></defs><g clip-path="url(#_clipPath_0ablVw9Kq3Of7IUukNg3vKci0OQvynjg)"><g><path d=" M 179.765 202.412 C 194.55 202.412 206.587 190.375 206.587 175.59 C 206.587 160.805 194.55 148.768 179.765 148.768 C 164.98 148.768 152.943 160.805 152.943 175.59 C 152.998 190.43 164.98 202.412 179.765 202.412 Z " fill="rgb(0,170,209)" class="svg-elem-2"></path><path d=" M 232.475 138.709 C 235.773 138.709 238.411 136.071 238.411 132.773 C 238.411 129.476 235.773 126.837 232.475 126.837 C 229.177 126.837 226.539 129.476 226.539 132.773 C 226.539 136.071 229.177 138.709 232.475 138.709 Z  M 99.354 230.663 C 99.354 225.881 95.452 221.979 90.67 221.979 C 85.888 221.979 81.986 225.881 81.986 230.663 C 81.986 235.445 85.888 239.347 90.67 239.347 C 95.452 239.347 99.354 235.445 99.354 230.663 Z " fill="rgb(254,215,16)" class="svg-elem-3"></path><path d=" M 285.02 169.874 C 281.997 169.874 279.523 172.347 279.523 175.37 L 279.523 175.645 C 279.523 178.668 281.997 181.141 285.02 181.141 C 288.043 181.141 290.516 178.668 290.516 175.645 L 290.516 175.425 C 290.516 172.347 288.043 169.874 285.02 169.874 Z  M 284.14 160.86 C 286.129 160.553 287.792 159.184 288.472 157.29 C 289.153 155.396 288.743 153.281 287.404 151.779 C 286.065 150.277 284.011 149.627 282.052 150.087 C 279.18 150.76 277.353 153.582 277.915 156.478 C 278.476 159.373 281.225 161.308 284.14 160.86 L 284.14 160.86 Z  M 288.537 196.586 C 289.087 193.618 287.163 190.705 284.195 190.155 C 281.227 189.605 278.314 191.529 277.765 194.497 C 277.455 196.106 277.879 197.769 278.92 199.033 C 279.962 200.298 281.513 201.033 283.151 201.038 C 285.734 201.038 288.043 199.224 288.537 196.586 L 288.537 196.586 Z  M 203.344 272.545 C 200.376 273.259 198.563 276.227 199.277 279.195 C 199.617 280.615 200.513 281.839 201.763 282.593 C 203.013 283.347 204.513 283.569 205.928 283.208 C 208.896 282.493 210.709 279.525 209.995 276.557 C 209.28 273.589 206.312 271.83 203.344 272.545 Z  M 163.881 65.993 C 161.026 66.4 158.971 68.944 159.173 71.82 C 159.376 74.697 161.767 76.928 164.65 76.931 C 164.925 76.931 165.2 76.931 165.42 76.876 C 168.443 76.436 170.531 73.633 170.092 70.665 C 169.652 67.697 166.849 65.608 163.881 65.993 L 163.881 65.993 Z  M 73.466 144.536 C 72.996 146.195 73.328 147.979 74.363 149.359 C 75.398 150.739 77.018 151.557 78.743 151.571 C 81.106 151.571 83.305 150.032 84.019 147.613 C 84.844 144.7 83.195 141.677 80.282 140.798 C 77.369 139.919 74.291 141.622 73.466 144.536 L 73.466 144.536 Z  M 205.708 67.917 C 202.74 67.202 199.772 69.016 199.112 71.984 C 198.398 74.952 200.211 77.92 203.179 78.58 C 203.619 78.69 204.059 78.745 204.444 78.745 C 206.917 78.745 209.17 77.041 209.775 74.512 C 210.49 71.599 208.676 68.631 205.708 67.917 Z  M 69.509 165.202 C 69.222 168.222 71.436 170.903 74.456 171.193 L 74.95 171.193 C 77.753 171.193 80.172 169.049 80.447 166.191 C 80.734 163.171 78.52 160.49 75.5 160.2 C 72.48 159.975 69.827 162.19 69.509 165.202 Z  M 277.545 220.22 C 279.743 220.22 281.777 218.901 282.656 216.757 C 283.811 213.954 282.436 210.711 279.578 209.612 C 276.775 208.458 273.587 209.832 272.433 212.69 C 271.741 214.384 271.943 216.311 272.97 217.825 C 273.998 219.339 275.715 220.238 277.545 220.22 L 277.545 220.22 Z  M 265.233 113.921 C 262.705 115.57 261.935 118.978 263.584 121.506 C 264.628 123.1 266.387 124.034 268.201 124.034 C 270.206 124.024 272.047 122.924 273.007 121.164 C 273.967 119.404 273.894 117.261 272.818 115.57 C 271.169 112.987 267.761 112.272 265.233 113.921 L 265.233 113.921 Z  M 240.884 266.829 C 241.984 266.829 243.083 266.499 244.072 265.784 C 245.663 264.645 246.525 262.744 246.334 260.798 C 246.143 258.851 244.927 257.154 243.146 256.346 C 241.364 255.538 239.287 255.741 237.696 256.88 C 235.223 258.639 234.673 262.102 236.432 264.575 C 237.477 266.059 239.18 266.829 240.884 266.829 L 240.884 266.829 Z  M 240.664 95.288 C 242.368 95.288 244.072 94.464 245.171 92.98 C 246.93 90.507 246.326 87.044 243.852 85.285 C 241.379 83.526 237.916 84.131 236.212 86.604 C 235.017 88.276 234.856 90.474 235.793 92.303 C 236.73 94.131 238.61 95.283 240.664 95.288 L 240.664 95.288 Z  M 223.351 85.285 C 225.44 85.285 227.418 84.076 228.353 82.042 C 229.617 79.294 228.408 75.996 225.604 74.787 C 222.801 73.578 219.559 74.732 218.349 77.535 C 217.085 80.284 218.294 83.581 221.098 84.791 C 221.812 85.12 222.582 85.285 223.351 85.285 L 223.351 85.285 Z  M 252.042 98.861 C 249.843 100.95 249.788 104.412 251.877 106.611 C 252.976 107.71 254.405 108.315 255.834 108.315 C 257.208 108.315 258.582 107.82 259.627 106.776 C 261.812 104.681 261.886 101.212 259.792 99.026 C 257.697 96.84 254.227 96.767 252.042 98.861 L 252.042 98.861 Z  M 124.472 271.555 C 125.352 272.05 126.286 272.27 127.22 272.27 C 129.713 272.269 131.894 270.593 132.538 268.185 C 133.181 265.777 132.128 263.237 129.969 261.992 C 127.33 260.453 123.978 261.387 122.439 264.026 C 120.955 266.719 121.834 270.071 124.472 271.555 Z  M 165.64 274.359 C 162.617 273.919 159.868 276.008 159.429 279.03 C 158.989 282.053 161.078 284.802 164.101 285.241 C 164.375 285.296 164.65 285.296 164.87 285.296 C 167.754 285.293 170.145 283.062 170.347 280.186 C 170.549 277.309 168.494 274.765 165.64 274.359 L 165.64 274.359 Z  M 255.999 253.747 C 257.428 253.747 258.912 253.198 259.956 252.044 C 261.311 250.63 261.809 248.6 261.262 246.72 C 260.715 244.84 259.207 243.394 257.305 242.928 C 255.403 242.461 253.397 243.045 252.042 244.459 C 249.953 246.657 250.008 250.12 252.207 252.208 C 253.251 253.198 254.625 253.747 255.999 253.747 Z  M 106.774 251.604 C 105.817 252.703 105.337 254.139 105.44 255.593 C 105.543 257.047 106.221 258.4 107.324 259.354 C 108.368 260.233 109.632 260.673 110.896 260.673 C 112.435 260.673 113.974 260.013 115.073 258.749 C 116.03 257.649 116.51 256.214 116.407 254.76 C 116.304 253.306 115.626 251.953 114.524 250.999 C 112.215 249.076 108.753 249.35 106.774 251.604 Z  M 143.38 70.995 C 141.202 70.987 139.226 72.269 138.347 74.261 C 137.467 76.253 137.85 78.577 139.323 80.181 C 140.796 81.785 143.079 82.365 145.138 81.658 C 145.743 81.658 146.348 81.548 146.952 81.328 C 149.81 80.339 151.349 77.206 150.36 74.348 C 149.425 71.489 146.238 70.005 143.38 70.995 L 143.38 70.995 Z  M 184.877 65.004 C 181.854 64.894 179.271 67.202 179.161 70.225 C 179.086 71.678 179.596 73.1 180.577 74.174 C 181.558 75.248 182.929 75.885 184.382 75.941 L 184.657 75.941 C 187.57 75.941 189.988 73.633 190.153 70.72 C 190.263 67.697 187.9 65.114 184.877 65.004 Z  M 221.262 266.389 C 218.514 267.653 217.305 270.896 218.569 273.699 C 219.504 275.733 221.482 276.887 223.571 276.887 C 224.34 276.887 225.11 276.722 225.879 276.392 C 228.627 275.128 229.837 271.885 228.572 269.082 C 227.308 266.334 224.011 265.125 221.262 266.389 L 221.262 266.389 Z  M 275.401 131.179 C 274.053 131.726 272.977 132.786 272.41 134.126 C 271.843 135.466 271.831 136.976 272.378 138.325 C 273.511 141.138 276.701 142.512 279.523 141.403 C 282.327 140.248 283.701 137.061 282.546 134.257 C 281.392 131.399 278.204 130.08 275.401 131.179 Z  M 143.654 280.35 C 144.259 280.569 144.864 280.624 145.468 280.624 C 147.722 280.624 149.865 279.195 150.69 276.942 C 151.679 274.084 150.14 270.951 147.282 269.962 C 144.424 268.972 141.291 270.511 140.302 273.369 C 139.795 274.738 139.866 276.254 140.498 277.57 C 141.13 278.886 142.269 279.889 143.654 280.35 L 143.654 280.35 Z  M 271.334 227.86 C 268.806 226.211 265.398 226.925 263.749 229.509 C 262.1 232.037 262.815 235.445 265.398 237.094 C 266.332 237.698 267.322 237.973 268.366 237.973 C 270.18 237.973 271.938 237.094 272.983 235.445 C 274.632 232.916 273.862 229.509 271.334 227.86 L 271.334 227.86 Z  M 124.252 79.789 C 122.987 80.521 122.067 81.728 121.695 83.142 C 121.324 84.556 121.532 86.059 122.274 87.319 C 123.318 89.078 125.132 90.067 127.055 90.067 C 127.99 90.067 128.924 89.847 129.804 89.352 C 132.442 87.813 133.321 84.461 131.782 81.823 C 131.065 80.542 129.862 79.605 128.445 79.223 C 127.028 78.84 125.517 79.044 124.252 79.789 L 124.252 79.789 Z  M 107.159 92.046 C 106.056 92.999 105.379 94.352 105.275 95.806 C 105.172 97.261 105.652 98.696 106.609 99.795 C 107.708 101.06 109.247 101.664 110.731 101.664 C 111.996 101.664 113.315 101.225 114.359 100.29 C 116.667 98.311 116.887 94.794 114.909 92.54 C 112.93 90.287 109.412 90.012 107.159 92.046 Z  M 88.691 122.605 C 85.998 121.231 82.7 122.275 81.271 124.969 C 80.387 126.674 80.458 128.718 81.458 130.358 C 82.458 131.998 84.242 132.997 86.163 132.993 C 88.142 132.993 90.065 131.894 91.055 130.025 C 92.429 127.332 91.384 124.034 88.691 122.605 Z  M 100.343 106.336 C 99.202 105.432 97.746 105.022 96.301 105.198 C 94.856 105.373 93.54 106.12 92.648 107.27 C 91.745 108.412 91.335 109.867 91.51 111.313 C 91.686 112.758 92.432 114.073 93.583 114.965 C 94.572 115.735 95.781 116.12 96.991 116.12 C 98.639 116.12 100.233 115.405 101.333 114.031 C 103.146 111.668 102.762 108.205 100.343 106.336 L 100.343 106.336 Z  M 184.602 275.238 C 182.638 275.287 180.85 276.38 179.911 278.105 C 178.971 279.83 179.024 281.925 180.048 283.601 C 181.072 285.278 182.913 286.28 184.877 286.231 L 185.152 286.231 C 188.175 286.066 190.538 283.537 190.373 280.46 C 190.208 277.437 187.625 275.128 184.602 275.238 Z  M 78.798 210.876 C 80.523 210.862 82.142 210.045 83.177 208.665 C 84.212 207.285 84.544 205.501 84.074 203.841 C 83.195 200.928 80.172 199.279 77.259 200.103 C 74.346 200.983 72.697 204.006 73.521 206.919 C 74.236 209.337 76.434 210.876 78.798 210.876 L 78.798 210.876 Z  M 74.511 180.262 C 71.491 180.551 69.277 183.233 69.564 186.253 C 69.839 189.111 72.202 191.254 75.005 191.254 L 75.555 191.254 C 78.575 190.964 80.789 188.283 80.502 185.263 C 80.376 183.803 79.673 182.454 78.548 181.515 C 77.423 180.575 75.97 180.124 74.511 180.262 L 74.511 180.262 Z  M 249.019 181.141 C 252.042 181.141 254.515 178.668 254.515 175.645 L 254.515 175.535 C 254.515 172.512 252.042 170.038 249.019 170.038 C 245.996 170.038 243.522 172.512 243.522 175.535 L 243.522 175.645 C 243.522 178.668 245.996 181.141 249.019 181.141 Z  M 110.566 181.196 C 113.589 181.196 116.063 178.723 116.063 175.7 C 116.063 172.677 113.589 170.203 110.566 170.203 C 107.544 170.203 105.07 172.677 105.07 175.7 C 105.07 178.723 107.544 181.196 110.566 181.196 Z  M 242.698 216.043 C 244.347 213.514 243.577 210.107 241.049 208.458 C 239.828 207.658 238.337 207.382 236.911 207.692 C 235.485 208.002 234.243 208.872 233.464 210.107 C 232.388 211.798 232.315 213.941 233.275 215.701 C 234.236 217.461 236.076 218.56 238.081 218.571 C 239.84 218.516 241.599 217.637 242.698 216.043 L 242.698 216.043 Z  M 148.656 107.655 C 145.908 108.919 144.699 112.162 145.963 114.965 C 146.897 116.999 148.876 118.153 150.964 118.153 C 151.734 118.153 152.503 117.988 153.273 117.659 C 156.021 116.394 157.23 113.152 155.966 110.348 C 154.647 107.6 151.404 106.391 148.656 107.655 L 148.656 107.655 Z  M 130.793 119.197 C 129.69 120.151 129.013 121.504 128.91 122.958 C 128.807 124.412 129.286 125.848 130.243 126.947 C 131.343 128.211 132.882 128.816 134.366 128.816 C 135.63 128.816 136.949 128.376 137.993 127.497 C 139.547 126.231 140.288 124.22 139.928 122.248 C 139.568 120.277 138.163 118.658 136.262 118.023 C 134.361 117.388 132.266 117.838 130.793 119.197 L 130.793 119.197 Z  M 251.492 196.696 C 251.91 195.296 251.749 193.788 251.047 192.507 C 250.345 191.227 249.159 190.281 247.755 189.88 C 246.355 189.463 244.847 189.623 243.566 190.325 C 242.286 191.028 241.34 192.213 240.939 193.618 C 240.46 195.278 240.787 197.067 241.824 198.45 C 242.861 199.833 244.487 200.648 246.216 200.653 C 248.634 200.598 250.833 199.059 251.492 196.696 L 251.492 196.696 Z  M 114.854 150.911 C 111.941 150.087 108.918 151.736 108.038 154.649 C 107.559 156.309 107.886 158.098 108.923 159.481 C 109.96 160.864 111.586 161.679 113.315 161.684 C 115.678 161.684 117.877 160.145 118.591 157.727 C 119.416 154.814 117.767 151.736 114.854 150.911 L 114.854 150.911 Z  M 229.287 224.342 C 227.308 222.034 223.846 221.814 221.537 223.792 C 219.229 225.771 219.009 229.234 220.988 231.542 C 222.087 232.806 223.626 233.411 225.165 233.411 C 226.429 233.411 227.748 232.971 228.792 232.037 C 231.046 230.113 231.266 226.651 229.287 224.342 Z  M 195.1 243.359 C 194.66 240.336 191.912 238.248 188.889 238.687 C 185.866 239.127 183.777 241.875 184.217 244.898 C 184.602 247.646 186.965 249.625 189.659 249.625 C 189.933 249.625 190.208 249.625 190.428 249.57 C 191.878 249.38 193.19 248.614 194.069 247.446 C 194.947 246.278 195.319 244.805 195.1 243.359 L 195.1 243.359 Z  M 138.653 231.597 C 140.631 229.289 140.412 225.826 138.103 223.847 C 135.795 221.869 132.332 222.089 130.353 224.397 C 128.375 226.706 128.594 230.168 130.903 232.147 C 131.947 233.026 133.211 233.466 134.475 233.466 C 136.014 233.466 137.553 232.861 138.653 231.597 Z  M 213.568 236.324 C 212.303 233.576 209.061 232.367 206.257 233.631 C 203.454 234.895 202.3 238.138 203.564 240.941 C 204.499 242.975 206.477 244.129 208.566 244.129 C 209.335 244.129 210.105 243.964 210.874 243.634 C 213.623 242.315 214.832 239.072 213.568 236.324 L 213.568 236.324 Z  M 111.831 189.935 C 108.918 190.815 107.269 193.838 108.093 196.751 C 108.948 199.661 111.995 201.332 114.909 200.488 C 117.822 199.609 119.471 196.586 118.646 193.673 C 118.251 192.265 117.306 191.075 116.024 190.372 C 114.741 189.669 113.23 189.511 111.831 189.935 Z  M 116.887 135.302 C 115.811 136.993 115.738 139.136 116.699 140.896 C 117.659 142.656 119.499 143.755 121.504 143.766 C 123.938 143.76 126.078 142.153 126.764 139.818 C 127.449 137.482 126.517 134.974 124.472 133.653 C 121.889 132.004 118.481 132.718 116.887 135.302 Z  M 244.622 150.691 C 241.709 151.571 240.06 154.594 240.884 157.507 C 241.599 159.87 243.797 161.464 246.161 161.464 C 247.886 161.451 249.505 160.633 250.54 159.253 C 251.575 157.873 251.907 156.089 251.437 154.429 C 250.613 151.516 247.535 149.867 244.622 150.691 L 244.622 150.691 Z  M 164.375 107.875 C 164.76 110.623 167.124 112.602 169.817 112.602 C 170.092 112.602 170.366 112.602 170.586 112.547 C 172.788 112.236 174.585 110.629 175.14 108.477 C 175.695 106.324 174.898 104.049 173.122 102.712 C 171.345 101.376 168.938 101.241 167.024 102.371 C 165.109 103.502 164.064 105.674 164.375 107.875 Z  M 175.423 244.953 C 175.863 241.93 173.774 239.182 170.751 238.742 C 167.728 238.303 164.98 240.391 164.54 243.414 C 164.101 246.437 166.189 249.185 169.212 249.625 C 169.487 249.68 169.762 249.68 169.982 249.68 C 172.72 249.68 175.04 247.664 175.423 244.953 Z  M 184.107 106.281 C 183.668 109.304 185.756 112.052 188.779 112.492 C 189.054 112.547 189.274 112.547 189.549 112.547 C 192.484 112.547 194.902 110.241 195.04 107.308 C 195.177 104.376 192.986 101.853 190.064 101.578 C 187.141 101.304 184.518 103.374 184.107 106.281 L 184.107 106.281 Z  M 203.454 110.293 C 202.672 111.998 202.811 113.983 203.823 115.562 C 204.835 117.141 206.581 118.097 208.456 118.098 C 210.545 118.098 212.523 116.889 213.458 114.855 C 214.722 112.107 213.513 108.809 210.709 107.6 C 207.961 106.336 204.718 107.545 203.454 110.293 L 203.454 110.293 Z  M 121.559 218.626 C 123.564 218.615 125.405 217.516 126.365 215.756 C 127.325 213.996 127.253 211.853 126.176 210.162 C 124.527 207.633 121.119 206.864 118.591 208.513 C 116.063 210.162 115.293 213.569 116.942 216.098 C 117.987 217.692 119.745 218.626 121.559 218.626 L 121.559 218.626 Z  M 156.076 240.941 C 157.34 238.193 156.131 234.895 153.383 233.631 C 150.635 232.367 147.337 233.576 146.073 236.324 C 144.809 239.072 146.018 242.37 148.766 243.634 C 151.53 244.871 154.776 243.675 156.076 240.941 Z  M 142.005 175.645 C 142.005 196.476 158.989 213.459 179.82 213.459 C 200.651 213.459 217.635 196.476 217.635 175.645 C 217.635 154.814 200.651 137.83 179.82 137.83 C 158.989 137.83 142.005 154.759 142.005 175.645 L 142.005 175.645 Z  M 179.765 148.823 C 194.55 148.823 206.587 160.86 206.587 175.645 C 206.587 190.43 194.55 202.467 179.765 202.467 C 164.98 202.467 152.943 190.43 152.943 175.645 C 152.998 160.86 164.98 148.823 179.765 148.823 Z  M 232.475 149.702 C 241.819 149.702 249.404 142.117 249.404 132.773 C 249.404 123.43 241.819 115.845 232.475 115.845 C 223.131 115.845 215.546 123.43 215.546 132.773 C 215.546 142.117 223.131 149.702 232.475 149.702 Z  M 232.475 126.837 C 235.773 126.837 238.411 129.476 238.411 132.773 C 238.411 136.071 235.773 138.709 232.475 138.709 C 229.177 138.709 226.539 136.071 226.539 132.773 C 226.539 129.476 229.177 126.837 232.475 126.837 Z  M 90.725 210.986 C 79.87 211.016 71.078 219.808 71.048 230.663 C 71.048 241.491 79.897 250.34 90.725 250.34 C 101.553 250.34 110.402 241.491 110.402 230.663 C 110.347 219.835 101.553 210.986 90.725 210.986 L 90.725 210.986 Z  M 82.041 230.663 C 82.041 225.881 85.943 221.979 90.725 221.979 C 95.507 221.979 99.409 225.881 99.409 230.663 C 99.409 235.445 95.507 239.347 90.725 239.347 C 85.943 239.347 82.041 235.445 82.041 230.663 Z " fill="rgb(45,48,51)" class="svg-elem-4"></path></g></g></svg>