<?xml version="1.0" encoding="UTF-8" standalone="no"?><!-- Generator: Gravit.io --><svg xmlns="http://www.w3.org/2000/svg" xmlns:xlink="http://www.w3.org/1999/xlink" style="isolation:isolate" viewBox="242 525 139 139" width="139pt" height="139pt"><g id="sampleGalaxy"><radialGradient id="_rgradient_0" fx="0.5" fy="0.5" cx="0.5" cy="0.5" r="0.5" gradientTransform="matrix(139,0,0,139,242,525)" gradientUnits="userSpaceOnUse"><stop offset="83.04347826086956%" stop-opacity="0.5" style="stop-color:rgb(253,240,223)"/><stop offset="98.26086956521739%" stop-opacity="0" style="stop-color:rgb(253,240,223)"/></radialGradient><circle vector-effect="non-scaling-stroke" cx="311.50000000000006" cy="594.5" r="69.5" id="sg-Ellipse" fill="url(#_rgradient_0)"/><path d=" M 367.091 591.171 C 365.49 591.171 364.181 592.48 364.181 594.08 L 364.181 594.226 C 364.181 595.826 365.49 597.135 367.091 597.135 C 368.691 597.135 370 595.826 370 594.226 L 370 594.11 C 370 592.48 368.691 591.171 367.091 591.171 Z  M 366.625 586.4 C 367.678 586.238 368.558 585.513 368.918 584.51 C 369.278 583.508 369.061 582.388 368.353 581.593 C 367.644 580.798 366.557 580.454 365.52 580.697 C 363.999 581.054 363.032 582.547 363.33 584.08 C 363.627 585.613 365.082 586.637 366.625 586.4 L 366.625 586.4 Z  M 368.953 605.311 C 369.244 603.74 368.225 602.198 366.654 601.907 C 365.083 601.616 363.541 602.634 363.25 604.205 C 363.086 605.057 363.311 605.937 363.862 606.606 C 364.413 607.276 365.234 607.665 366.101 607.667 C 367.469 607.667 368.691 606.707 368.953 605.311 L 368.953 605.311 Z  M 323.857 645.519 C 322.286 645.897 321.326 647.468 321.704 649.039 C 321.884 649.79 322.358 650.438 323.02 650.838 C 323.681 651.237 324.476 651.354 325.224 651.163 C 326.795 650.785 327.756 649.213 327.377 647.642 C 326.999 646.071 325.428 645.14 323.857 645.519 Z  M 302.968 536.184 C 301.456 536.399 300.369 537.745 300.476 539.268 C 300.583 540.791 301.848 541.972 303.375 541.973 C 303.52 541.973 303.666 541.973 303.782 541.944 C 305.382 541.711 306.488 540.228 306.255 538.656 C 306.022 537.085 304.539 535.98 302.968 536.184 L 302.968 536.184 Z  M 255.108 577.759 C 254.859 578.637 255.035 579.582 255.583 580.312 C 256.131 581.043 256.988 581.476 257.901 581.483 C 259.152 581.483 260.316 580.668 260.694 579.388 C 261.13 577.846 260.258 576.246 258.716 575.78 C 257.174 575.315 255.544 576.217 255.108 577.759 L 255.108 577.759 Z  M 325.108 537.202 C 323.537 536.824 321.966 537.784 321.617 539.355 C 321.239 540.926 322.199 542.497 323.77 542.846 C 324.002 542.904 324.235 542.933 324.439 542.933 C 325.748 542.933 326.941 542.031 327.261 540.693 C 327.639 539.151 326.679 537.58 325.108 537.202 Z  M 253.013 588.698 C 252.861 590.297 254.033 591.716 255.632 591.869 L 255.894 591.869 C 257.377 591.869 258.657 590.735 258.803 589.222 C 258.955 587.623 257.783 586.204 256.184 586.051 C 254.586 585.932 253.182 587.104 253.013 588.698 Z  M 363.134 617.821 C 364.298 617.821 365.374 617.123 365.84 615.988 C 366.451 614.504 365.723 612.788 364.21 612.206 C 362.727 611.595 361.039 612.322 360.428 613.835 C 360.062 614.732 360.168 615.752 360.712 616.554 C 361.256 617.355 362.165 617.831 363.134 617.821 L 363.134 617.821 Z  M 356.617 561.553 C 355.278 562.426 354.871 564.23 355.744 565.568 C 356.297 566.412 357.228 566.907 358.188 566.907 C 359.249 566.901 360.223 566.319 360.732 565.387 C 361.24 564.456 361.202 563.322 360.632 562.426 C 359.759 561.059 357.955 560.681 356.617 561.553 L 356.617 561.553 Z  M 343.728 642.493 C 344.31 642.493 344.892 642.318 345.416 641.94 C 346.258 641.337 346.714 640.331 346.613 639.3 C 346.512 638.27 345.868 637.371 344.925 636.944 C 343.982 636.516 342.883 636.624 342.041 637.227 C 340.731 638.158 340.441 639.991 341.372 641.3 C 341.924 642.085 342.826 642.493 343.728 642.493 L 343.728 642.493 Z  M 343.612 551.691 C 344.514 551.691 345.416 551.254 345.997 550.469 C 346.928 549.159 346.608 547.326 345.299 546.395 C 343.99 545.464 342.157 545.785 341.255 547.094 C 340.623 547.978 340.537 549.142 341.033 550.11 C 341.529 551.078 342.524 551.688 343.612 551.691 L 343.612 551.691 Z  M 334.447 546.395 C 335.553 546.395 336.6 545.755 337.095 544.679 C 337.764 543.224 337.124 541.479 335.64 540.839 C 334.156 540.198 332.44 540.809 331.8 542.293 C 331.13 543.748 331.771 545.494 333.254 546.134 C 333.633 546.308 334.04 546.395 334.447 546.395 L 334.447 546.395 Z  M 349.634 553.582 C 348.47 554.687 348.441 556.52 349.547 557.684 C 350.129 558.266 350.885 558.586 351.642 558.586 C 352.369 558.586 353.096 558.324 353.649 557.771 C 354.806 556.663 354.845 554.826 353.736 553.669 C 352.628 552.512 350.791 552.473 349.634 553.582 L 349.634 553.582 Z  M 282.107 644.995 C 282.573 645.257 283.067 645.373 283.562 645.373 C 284.881 645.372 286.036 644.486 286.376 643.211 C 286.717 641.936 286.16 640.592 285.017 639.933 C 283.62 639.118 281.845 639.612 281.031 641.009 C 280.245 642.435 280.711 644.209 282.107 644.995 Z  M 303.899 646.479 C 302.298 646.246 300.844 647.351 300.611 648.952 C 300.378 650.552 301.484 652.007 303.084 652.239 C 303.229 652.268 303.375 652.268 303.491 652.268 C 305.018 652.267 306.283 651.086 306.39 649.563 C 306.497 648.041 305.41 646.694 303.899 646.479 L 303.899 646.479 Z  M 351.729 635.568 C 352.485 635.568 353.271 635.277 353.824 634.667 C 354.541 633.918 354.804 632.844 354.515 631.849 C 354.225 630.853 353.427 630.088 352.42 629.841 C 351.413 629.594 350.351 629.903 349.634 630.652 C 348.529 631.815 348.558 633.648 349.722 634.754 C 350.274 635.277 351.002 635.568 351.729 635.568 Z  M 272.739 634.434 C 272.232 635.016 271.978 635.776 272.033 636.545 C 272.088 637.315 272.446 638.031 273.03 638.536 C 273.583 639.002 274.252 639.234 274.921 639.234 C 275.736 639.234 276.55 638.885 277.132 638.216 C 277.639 637.634 277.893 636.874 277.838 636.104 C 277.784 635.335 277.425 634.618 276.841 634.114 C 275.619 633.095 273.786 633.241 272.739 634.434 Z  M 292.116 538.831 C 290.963 538.827 289.917 539.506 289.451 540.56 C 288.986 541.614 289.189 542.845 289.968 543.694 C 290.748 544.543 291.956 544.849 293.047 544.475 C 293.367 544.475 293.687 544.417 294.007 544.301 C 295.519 543.777 296.334 542.119 295.81 540.606 C 295.316 539.093 293.628 538.307 292.116 538.831 L 292.116 538.831 Z  M 314.081 535.66 C 312.481 535.602 311.114 536.824 311.056 538.424 C 311.016 539.193 311.286 539.945 311.806 540.514 C 312.325 541.083 313.05 541.419 313.82 541.45 L 313.965 541.45 C 315.507 541.45 316.787 540.228 316.874 538.686 C 316.933 537.085 315.682 535.718 314.081 535.66 Z  M 333.342 642.26 C 331.887 642.929 331.247 644.646 331.916 646.13 C 332.411 647.206 333.458 647.817 334.564 647.817 C 334.971 647.817 335.378 647.73 335.786 647.555 C 337.24 646.886 337.88 645.169 337.211 643.686 C 336.542 642.231 334.796 641.591 333.342 642.26 L 333.342 642.26 Z  M 361.999 570.689 C 361.285 570.978 360.716 571.539 360.416 572.249 C 360.116 572.958 360.11 573.757 360.399 574.471 C 360.999 575.961 362.687 576.688 364.181 576.1 C 365.665 575.489 366.392 573.802 365.781 572.318 C 365.17 570.805 363.483 570.107 361.999 570.689 Z  M 292.261 649.65 C 292.581 649.766 292.901 649.795 293.221 649.795 C 294.414 649.795 295.549 649.039 295.985 647.846 C 296.509 646.333 295.694 644.675 294.181 644.151 C 292.668 643.627 291.01 644.442 290.486 645.955 C 290.218 646.68 290.256 647.482 290.59 648.179 C 290.925 648.875 291.528 649.406 292.261 649.65 L 292.261 649.65 Z  M 359.846 621.865 C 358.508 620.992 356.704 621.371 355.831 622.738 C 354.958 624.076 355.337 625.88 356.704 626.753 C 357.199 627.073 357.722 627.218 358.275 627.218 C 359.235 627.218 360.166 626.753 360.719 625.88 C 361.592 624.542 361.185 622.738 359.846 621.865 L 359.846 621.865 Z  M 281.991 543.486 C 281.321 543.874 280.834 544.513 280.637 545.261 C 280.441 546.009 280.551 546.805 280.943 547.472 C 281.496 548.403 282.456 548.927 283.475 548.927 C 283.969 548.927 284.464 548.81 284.929 548.548 C 286.326 547.734 286.791 545.959 285.977 544.563 C 285.597 543.885 284.96 543.389 284.21 543.186 C 283.46 542.984 282.66 543.092 281.991 543.486 L 281.991 543.486 Z  M 272.943 549.974 C 272.359 550.479 272 551.195 271.946 551.965 C 271.891 552.734 272.145 553.494 272.652 554.076 C 273.234 554.745 274.048 555.065 274.834 555.065 C 275.503 555.065 276.201 554.833 276.754 554.338 C 277.976 553.291 278.092 551.429 277.045 550.236 C 275.997 549.043 274.135 548.898 272.943 549.974 Z  M 263.167 566.15 C 261.741 565.423 259.996 565.976 259.239 567.401 C 258.772 568.304 258.809 569.386 259.338 570.254 C 259.868 571.122 260.812 571.651 261.829 571.649 C 262.876 571.649 263.894 571.067 264.418 570.078 C 265.145 568.652 264.593 566.907 263.167 566.15 Z  M 269.335 557.538 C 268.731 557.06 267.96 556.843 267.195 556.936 C 266.43 557.029 265.734 557.424 265.262 558.033 C 264.783 558.637 264.566 559.408 264.659 560.173 C 264.752 560.938 265.147 561.634 265.756 562.106 C 266.28 562.514 266.92 562.717 267.56 562.717 C 268.433 562.717 269.277 562.339 269.859 561.612 C 270.819 560.361 270.615 558.528 269.335 557.538 L 269.335 557.538 Z  M 313.936 646.944 C 312.897 646.97 311.95 647.549 311.453 648.462 C 310.956 649.375 310.983 650.484 311.525 651.371 C 312.068 652.258 313.042 652.789 314.081 652.763 L 314.227 652.763 C 315.827 652.676 317.078 651.337 316.991 649.708 C 316.904 648.108 315.536 646.886 313.936 646.944 Z  M 257.93 612.875 C 258.843 612.868 259.701 612.435 260.248 611.704 C 260.796 610.974 260.972 610.03 260.723 609.151 C 260.258 607.609 258.657 606.736 257.115 607.173 C 255.574 607.638 254.701 609.238 255.137 610.78 C 255.515 612.061 256.679 612.875 257.93 612.875 L 257.93 612.875 Z  M 255.661 596.67 C 254.062 596.823 252.89 598.243 253.042 599.841 C 253.188 601.354 254.439 602.489 255.923 602.489 L 256.214 602.489 C 257.812 602.335 258.984 600.916 258.832 599.317 C 258.766 598.545 258.393 597.83 257.798 597.333 C 257.202 596.836 256.433 596.597 255.661 596.67 L 255.661 596.67 Z  M 348.034 597.135 C 349.634 597.135 350.943 595.826 350.943 594.226 L 350.943 594.168 C 350.943 592.568 349.634 591.258 348.034 591.258 C 346.434 591.258 345.125 592.568 345.125 594.168 L 345.125 594.226 C 345.125 595.826 346.434 597.135 348.034 597.135 Z  M 274.746 597.164 C 276.347 597.164 277.656 595.855 277.656 594.255 C 277.656 592.655 276.347 591.346 274.746 591.346 C 273.146 591.346 271.837 592.655 271.837 594.255 C 271.837 595.855 273.146 597.164 274.746 597.164 Z  M 344.688 615.61 C 345.561 614.272 345.154 612.468 343.815 611.595 C 343.169 611.172 342.38 611.025 341.625 611.19 C 340.87 611.354 340.213 611.814 339.8 612.468 C 339.231 613.363 339.192 614.497 339.701 615.429 C 340.209 616.361 341.183 616.943 342.244 616.948 C 343.175 616.919 344.106 616.454 344.688 615.61 L 344.688 615.61 Z  M 294.909 558.237 C 293.454 558.906 292.814 560.622 293.483 562.106 C 293.978 563.183 295.025 563.794 296.13 563.794 C 296.538 563.794 296.945 563.706 297.352 563.532 C 298.807 562.863 299.447 561.146 298.778 559.662 C 298.08 558.208 296.363 557.568 294.909 558.237 L 294.909 558.237 Z  M 285.453 564.346 C 284.869 564.851 284.511 565.568 284.456 566.337 C 284.401 567.107 284.656 567.867 285.162 568.449 C 285.744 569.118 286.559 569.438 287.344 569.438 C 288.013 569.438 288.712 569.205 289.264 568.74 C 290.087 568.069 290.479 567.005 290.288 565.961 C 290.098 564.918 289.354 564.061 288.348 563.725 C 287.342 563.389 286.232 563.627 285.453 564.346 L 285.453 564.346 Z  M 349.343 605.369 C 349.564 604.628 349.479 603.83 349.108 603.152 C 348.736 602.474 348.108 601.973 347.365 601.761 C 346.624 601.54 345.826 601.625 345.148 601.997 C 344.47 602.369 343.969 602.996 343.757 603.74 C 343.503 604.619 343.677 605.566 344.226 606.298 C 344.775 607.029 345.635 607.461 346.55 607.464 C 347.83 607.435 348.994 606.62 349.343 605.369 L 349.343 605.369 Z  M 277.016 581.134 C 275.474 580.697 273.874 581.57 273.408 583.112 C 273.154 583.991 273.328 584.938 273.877 585.67 C 274.426 586.402 275.286 586.834 276.201 586.836 C 277.452 586.836 278.616 586.021 278.994 584.741 C 279.431 583.199 278.558 581.57 277.016 581.134 L 277.016 581.134 Z  M 337.589 620.003 C 336.542 618.781 334.709 618.665 333.487 619.712 C 332.265 620.76 332.149 622.593 333.196 623.814 C 333.778 624.484 334.593 624.804 335.407 624.804 C 336.076 624.804 336.775 624.571 337.327 624.076 C 338.52 623.058 338.637 621.225 337.589 620.003 Z  M 319.493 630.07 C 319.26 628.47 317.805 627.364 316.205 627.597 C 314.605 627.829 313.5 629.284 313.732 630.884 C 313.936 632.339 315.187 633.386 316.613 633.386 C 316.758 633.386 316.904 633.386 317.02 633.357 C 317.787 633.257 318.482 632.851 318.947 632.233 C 319.412 631.614 319.609 630.835 319.493 630.07 L 319.493 630.07 Z  M 289.613 623.844 C 290.661 622.622 290.544 620.789 289.322 619.741 C 288.101 618.694 286.268 618.81 285.22 620.032 C 284.173 621.254 284.289 623.087 285.511 624.135 C 286.064 624.6 286.733 624.833 287.402 624.833 C 288.217 624.833 289.032 624.513 289.613 623.844 Z  M 329.268 626.346 C 328.599 624.891 326.883 624.251 325.399 624.92 C 323.915 625.589 323.304 627.306 323.973 628.79 C 324.468 629.866 325.515 630.477 326.621 630.477 C 327.028 630.477 327.436 630.39 327.843 630.215 C 329.298 629.517 329.938 627.8 329.268 626.346 L 329.268 626.346 Z  M 275.416 601.79 C 273.874 602.256 273.001 603.856 273.437 605.398 C 273.89 606.938 275.503 607.823 277.045 607.376 C 278.587 606.911 279.46 605.311 279.023 603.769 C 278.814 603.024 278.314 602.394 277.635 602.022 C 276.956 601.649 276.156 601.566 275.416 601.79 Z  M 278.092 572.871 C 277.522 573.766 277.484 574.901 277.992 575.832 C 278.5 576.764 279.475 577.346 280.536 577.351 C 281.825 577.348 282.957 576.498 283.32 575.261 C 283.683 574.025 283.19 572.697 282.107 571.998 C 280.74 571.125 278.936 571.504 278.092 572.871 Z  M 345.707 581.017 C 344.165 581.483 343.292 583.083 343.728 584.625 C 344.106 585.876 345.27 586.72 346.521 586.72 C 347.434 586.712 348.292 586.28 348.84 585.549 C 349.387 584.819 349.563 583.874 349.314 582.996 C 348.878 581.454 347.249 580.581 345.707 581.017 L 345.707 581.017 Z  M 303.229 558.353 C 303.433 559.808 304.684 560.855 306.11 560.855 C 306.255 560.855 306.401 560.855 306.517 560.826 C 307.682 560.661 308.634 559.811 308.927 558.672 C 309.221 557.532 308.799 556.328 307.859 555.62 C 306.919 554.913 305.645 554.842 304.631 555.44 C 303.618 556.038 303.064 557.188 303.229 558.353 Z  M 309.077 630.913 C 309.31 629.313 308.204 627.859 306.604 627.626 C 305.004 627.393 303.549 628.499 303.317 630.099 C 303.084 631.699 304.189 633.154 305.79 633.386 C 305.935 633.415 306.081 633.415 306.197 633.415 C 307.646 633.415 308.874 632.348 309.077 630.913 Z  M 313.674 557.509 C 313.441 559.11 314.547 560.564 316.147 560.797 C 316.293 560.826 316.409 560.826 316.554 560.826 C 318.108 560.826 319.388 559.605 319.461 558.053 C 319.534 556.501 318.374 555.165 316.827 555.02 C 315.28 554.875 313.892 555.971 313.674 557.509 L 313.674 557.509 Z  M 323.915 559.633 C 323.501 560.535 323.575 561.586 324.11 562.422 C 324.646 563.258 325.57 563.764 326.563 563.765 C 327.668 563.765 328.716 563.125 329.21 562.048 C 329.879 560.593 329.239 558.848 327.756 558.208 C 326.301 557.538 324.584 558.179 323.915 559.633 L 323.915 559.633 Z  M 280.565 616.977 C 281.626 616.972 282.601 616.39 283.109 615.458 C 283.617 614.526 283.579 613.392 283.009 612.497 C 282.136 611.159 280.332 610.751 278.994 611.624 C 277.656 612.497 277.248 614.301 278.121 615.639 C 278.674 616.483 279.605 616.977 280.565 616.977 L 280.565 616.977 Z  M 298.836 628.79 C 299.505 627.335 298.865 625.589 297.411 624.92 C 295.956 624.251 294.21 624.891 293.541 626.346 C 292.872 627.8 293.512 629.546 294.967 630.215 C 296.43 630.87 298.148 630.237 298.836 628.79 Z  M 291.388 594.226 C 291.388 605.253 300.378 614.243 311.405 614.243 C 322.431 614.243 331.421 605.253 331.421 594.226 C 331.421 583.199 322.431 574.209 311.405 574.209 C 300.378 574.209 291.388 583.17 291.388 594.226 L 291.388 594.226 Z  M 311.376 580.028 C 319.202 580.028 325.574 586.4 325.574 594.226 C 325.574 602.052 319.202 608.424 311.376 608.424 C 303.549 608.424 297.178 602.052 297.178 594.226 C 297.207 586.4 303.549 580.028 311.376 580.028 Z  M 339.277 580.494 C 344.223 580.494 348.238 576.479 348.238 571.533 C 348.238 566.587 344.223 562.572 339.277 562.572 C 334.331 562.572 330.316 566.587 330.316 571.533 C 330.316 576.479 334.331 580.494 339.277 580.494 Z  M 339.277 568.391 C 341.022 568.391 342.419 569.787 342.419 571.533 C 342.419 573.278 341.022 574.675 339.277 574.675 C 337.531 574.675 336.135 573.278 336.135 571.533 C 336.135 569.787 337.531 568.391 339.277 568.391 Z  M 264.244 612.933 C 258.498 612.949 253.844 617.603 253.828 623.349 C 253.828 629.08 258.512 633.765 264.244 633.765 C 269.975 633.765 274.659 629.08 274.659 623.349 C 274.63 617.617 269.975 612.933 264.244 612.933 L 264.244 612.933 Z  M 259.647 623.349 C 259.647 620.818 261.712 618.752 264.244 618.752 C 266.775 618.752 268.84 620.818 268.84 623.349 C 268.84 625.88 266.775 627.946 264.244 627.946 C 261.712 627.946 259.647 625.88 259.647 623.349 Z " id="sg-orbits" class="st2" fill="rgb(13,94,128)"/><path d=" M 339.277 574.675 C 341.022 574.675 342.419 573.278 342.419 571.533 C 342.419 569.787 341.022 568.391 339.277 568.391 C 337.531 568.391 336.135 569.787 336.135 571.533 C 336.135 573.278 337.531 574.675 339.277 574.675 Z  M 268.811 623.349 C 268.811 620.818 266.746 618.752 264.214 618.752 C 261.683 618.752 259.618 620.818 259.618 623.349 C 259.618 625.88 261.683 627.946 264.214 627.946 C 266.746 627.946 268.811 625.88 268.811 623.349 Z " id="sg-planets" class="st1" fill="rgb(232,151,0)"/><path d=" M 311.376 608.395 C 319.202 608.395 325.574 602.023 325.574 594.197 C 325.574 586.371 319.202 579.999 311.376 579.999 C 303.549 579.999 297.178 586.371 297.178 594.197 C 297.207 602.052 303.549 608.395 311.376 608.395 Z " id="sg-sun" class="st0" fill="rgb(244,255,29)" fill-opacity="0.77"/></g></svg>